<svg xmlns="http://www.w3.org/2000/svg" xmlns:xlink="http://www.w3.org/1999/xlink" width="500" zoomAndPan="magnify" viewBox="0 0 375 374.999991" height="500" preserveAspectRatio="xMidYMid meet" version="1.0"><defs><clipPath id="c2f0a15406"><path d="M 266 257 L 369 257 L 369 374.71875 L 266 374.71875 Z M 266 257 " clip-rule="nonzero"/></clipPath><clipPath id="904560dc43"><path d="M 286 127.96875 L 375 127.96875 L 375 231 L 286 231 Z M 286 127.96875 " clip-rule="nonzero"/></clipPath><clipPath id="da3d7d4dfb"><path d="M 266 257 L 369 257 L 369 374.71875 L 266 374.71875 Z M 266 257 " clip-rule="nonzero"/></clipPath><clipPath id="6c0a6ab9af"><path d="M 286 127.96875 L 375 127.96875 L 375 231 L 286 231 Z M 286 127.96875 " clip-rule="nonzero"/></clipPath></defs><path fill="#0aff9d" d="M 317.984375 198.910156 C 329.066406 205.246094 340.152344 211.894531 351.238281 218.230469 L 351.238281 256.867188 C 340.152344 263.203125 329.066406 269.851562 317.667969 276.1875 C 306.582031 269.851562 295.496094 263.203125 284.09375 256.867188 L 284.09375 218.230469 C 295.179688 211.894531 306.582031 205.246094 317.667969 198.910156 Z M 334.136719 209.046875 L 317.667969 199.542969 L 284.730469 218.546875 L 284.730469 256.550781 L 317.667969 275.554688 L 350.605469 256.550781 L 350.605469 218.546875 Z M 334.136719 209.046875 " fill-opacity="1" fill-rule="nonzero"/><path fill="#0aff9d" d="M 248.625 261.617188 C 260.660156 268.585938 273.011719 275.554688 285.046875 282.523438 L 285.046875 324.644531 C 273.011719 331.609375 260.660156 338.894531 248.625 345.863281 C 236.589844 338.894531 224.238281 331.929688 212.203125 324.644531 L 212.203125 282.523438 C 224.238281 275.554688 236.589844 268.585938 248.625 261.300781 Z M 266.359375 272.703125 L 248.308594 262.253906 L 212.203125 283.15625 L 212.203125 324.644531 L 248.308594 345.546875 L 284.414062 324.644531 L 284.414062 283.15625 Z M 266.359375 272.703125 " fill-opacity="1" fill-rule="nonzero"/><path fill="#0aff9d" d="M 286.945312 246.417969 C 293.914062 250.535156 300.5625 254.335938 307.53125 258.453125 L 307.53125 282.523438 C 300.5625 286.640625 293.597656 290.4375 286.628906 294.554688 C 279.660156 290.4375 272.695312 286.640625 265.726562 282.523438 L 265.726562 258.453125 C 272.695312 254.335938 279.660156 250.535156 286.628906 246.417969 Z M 296.765625 252.75 L 286.628906 247.050781 L 266.359375 258.769531 L 266.359375 282.203125 L 286.628906 293.921875 L 306.898438 282.203125 L 306.898438 258.769531 L 296.765625 253.066406 Z M 296.765625 252.75 " fill-opacity="1" fill-rule="nonzero"/><g clip-path="url(#c2f0a15406)"><path fill="#0aff9d" d="M 317.984375 257.820312 C 334.769531 267.636719 351.554688 277.136719 368.339844 286.957031 L 368.339844 345.546875 C 351.554688 355.363281 334.453125 365.183594 317.667969 375 C 300.882812 365.183594 283.777344 355.363281 266.992188 345.546875 L 266.992188 286.957031 C 283.777344 277.136719 300.882812 267.320312 317.667969 257.5 Z M 342.054688 273.652344 L 317.667969 259.402344 L 268.578125 287.589844 L 268.578125 344.28125 L 317.667969 372.464844 L 366.757812 344.28125 L 366.757812 287.589844 L 342.371094 273.335938 Z M 342.054688 273.652344 " fill-opacity="1" fill-rule="nonzero"/></g><path fill="#0aff9d" d="M 180.53125 291.390625 C 188.132812 295.824219 195.734375 300.257812 203.335938 304.691406 L 203.335938 331.292969 C 195.734375 335.726562 188.132812 340.164062 180.53125 344.597656 C 172.929688 340.164062 165.332031 335.726562 157.730469 331.292969 L 157.730469 304.691406 C 165.332031 300.257812 172.929688 295.824219 180.53125 291.390625 Z M 191.617188 298.355469 L 180.53125 292.023438 L 158.046875 305.007812 L 158.046875 330.976562 L 180.53125 343.960938 L 203.019531 330.976562 L 203.019531 305.007812 L 191.933594 298.671875 Z M 191.617188 298.355469 " fill-opacity="1" fill-rule="nonzero"/><path fill="#0aff9d" d="M 224.554688 305.640625 C 234.054688 311.34375 243.875 316.726562 253.375 322.425781 L 253.375 356.3125 C 243.558594 362.015625 233.738281 367.714844 224.238281 373.101562 C 214.421875 367.398438 204.601562 361.699219 195.101562 356.3125 L 195.101562 322.425781 C 204.917969 316.726562 214.738281 311.34375 224.238281 305.640625 L 224.554688 305.957031 Z M 238.171875 314.824219 L 224.238281 306.589844 L 196.050781 322.742188 L 196.050781 355.363281 L 224.238281 371.515625 L 252.425781 355.363281 L 252.425781 322.742188 L 238.488281 314.507812 Z M 238.171875 314.824219 " fill-opacity="1" fill-rule="nonzero"/><path fill="#0aff9d" d="M 192.566406 248.316406 L 203.335938 254.652344 L 203.335938 267.636719 L 192.25 273.96875 L 181.164062 267.636719 L 181.164062 254.652344 L 192.25 248.316406 L 192.566406 248.632812 Z M 197.316406 252.433594 L 192.25 249.585938 L 182.117188 255.285156 L 182.117188 267.003906 L 192.25 272.703125 L 202.386719 267.003906 L 202.386719 255.285156 Z M 197.316406 252.433594 " fill-opacity="1" fill-rule="nonzero"/><path fill="#0aff9d" d="M 198.585938 185.292969 C 206.503906 190.042969 214.738281 194.476562 222.65625 199.226562 L 222.65625 227.097656 C 214.738281 231.847656 206.503906 236.28125 198.585938 241.03125 C 190.667969 236.28125 182.433594 231.847656 174.515625 227.097656 L 174.515625 199.226562 C 182.433594 194.476562 190.667969 190.042969 198.585938 185.292969 Z M 210.304688 192.578125 L 198.585938 185.609375 L 174.832031 199.226562 L 174.832031 226.464844 L 198.585938 240.082031 L 222.335938 226.464844 L 222.335938 199.226562 L 210.621094 192.261719 Z M 210.304688 192.578125 " fill-opacity="1" fill-rule="nonzero"/><path fill="#0aff9d" d="M 85.519531 230.898438 C 87.421875 232.164062 89.320312 233.117188 91.222656 234.382812 L 91.222656 241.351562 L 85.203125 244.832031 L 79.1875 241.351562 L 79.1875 234.382812 C 81.085938 233.117188 83.304688 232.164062 85.203125 230.898438 Z M 88.054688 233.117188 L 85.519531 231.53125 L 80.136719 234.699219 L 80.136719 241.03125 L 85.519531 244.199219 L 90.90625 241.03125 L 90.90625 234.699219 L 88.371094 233.117188 Z M 88.054688 233.117188 " fill-opacity="1" fill-rule="nonzero"/><path fill="#0aff9d" d="M 105.15625 284.421875 C 117.507812 291.390625 129.859375 298.671875 141.894531 305.640625 L 141.894531 348.398438 L 104.839844 369.933594 C 92.488281 362.648438 80.136719 355.679688 67.785156 348.398438 L 67.785156 305.640625 C 80.136719 298.355469 92.488281 291.390625 104.839844 284.105469 Z M 122.890625 295.824219 L 104.839844 285.371094 L 68.734375 306.273438 L 68.734375 347.761719 L 104.839844 368.664062 L 140.945312 347.761719 L 140.945312 306.273438 Z M 122.890625 295.824219 " fill-opacity="1" fill-rule="nonzero"/><path fill="#0aff9d" d="M 234.6875 245.46875 C 239.441406 248.316406 244.191406 250.851562 248.941406 253.703125 L 248.941406 270.488281 L 234.371094 278.722656 L 219.804688 270.488281 L 219.804688 253.703125 C 224.554688 250.851562 229.304688 248 234.371094 245.46875 L 234.6875 245.785156 Z M 241.023438 250.535156 L 234.371094 246.734375 L 221.070312 254.335938 L 221.070312 269.851562 L 234.371094 277.453125 L 247.675781 269.851562 L 247.675781 254.335938 Z M 241.023438 250.535156 " fill-opacity="1" fill-rule="nonzero"/><path fill="#0aff9d" d="M 203.335938 273.96875 C 208.71875 277.136719 213.785156 279.988281 219.171875 283.15625 L 219.171875 301.523438 C 213.785156 304.691406 208.402344 307.859375 203.019531 310.707031 C 197.632812 307.542969 192.25 304.691406 186.867188 301.523438 L 186.867188 283.15625 C 192.25 279.988281 197.632812 277.136719 203.019531 273.96875 Z M 210.9375 279.039062 L 203.335938 274.605469 L 187.816406 283.472656 L 187.816406 301.207031 L 203.335938 310.074219 L 218.855469 301.207031 L 218.855469 283.472656 L 211.253906 279.039062 Z M 210.9375 279.039062 " fill-opacity="1" fill-rule="nonzero"/><path fill="#0aff9d" d="M 250.207031 197.328125 L 266.359375 206.511719 L 266.359375 225.199219 L 249.890625 234.699219 L 233.421875 225.199219 L 233.421875 206.511719 C 238.804688 203.34375 244.191406 200.179688 249.890625 197.011719 Z M 257.492188 202.710938 L 249.890625 198.277344 L 234.6875 207.144531 L 234.6875 224.5625 L 249.890625 233.433594 L 265.09375 224.5625 L 265.09375 207.144531 Z M 257.492188 202.710938 " fill-opacity="1" fill-rule="nonzero"/><path fill="#0aff9d" d="M 147.59375 262.886719 L 170.398438 276.1875 L 170.398438 303.109375 L 146.960938 316.726562 L 123.523438 303.109375 L 123.523438 276.1875 L 146.960938 262.570312 L 147.277344 262.886719 Z M 158.046875 270.804688 L 147.277344 264.46875 L 125.742188 276.820312 L 125.742188 301.839844 L 147.277344 314.191406 L 168.8125 301.839844 L 168.8125 276.820312 L 158.046875 270.488281 Z M 158.046875 270.804688 " fill-opacity="1" fill-rule="nonzero"/><path fill="#0aff9d" d="M 128.910156 219.179688 C 133.660156 222.03125 138.726562 224.882812 143.476562 227.730469 L 143.476562 244.832031 L 128.59375 253.382812 L 113.707031 244.832031 L 113.707031 227.730469 C 118.773438 224.882812 123.523438 222.03125 128.59375 219.179688 Z M 135.875 223.929688 L 128.910156 219.8125 L 114.65625 228.046875 L 114.65625 244.515625 L 128.910156 252.75 L 143.160156 244.515625 L 143.160156 228.046875 L 136.195312 223.929688 Z M 135.875 223.929688 " fill-opacity="1" fill-rule="nonzero"/><path fill="#0aff9d" d="M 60.816406 258.769531 C 70.320312 264.46875 80.136719 269.851562 89.636719 275.554688 L 89.636719 309.125 C 80.136719 314.824219 70.320312 320.210938 60.816406 325.910156 C 51.316406 320.210938 41.5 314.824219 31.996094 309.125 L 31.996094 275.554688 C 41.816406 270.171875 51.316406 264.46875 60.816406 258.769531 Z M 74.753906 267.636719 L 60.5 259.402344 L 31.996094 275.871094 L 31.996094 308.808594 L 60.5 325.277344 L 89.003906 308.808594 L 89.003906 275.871094 Z M 74.753906 267.636719 " fill-opacity="1" fill-rule="nonzero"/><g clip-path="url(#904560dc43)"><path fill="#0aff9d" d="M 330.96875 128.285156 C 345.535156 136.835938 360.421875 145.070312 374.992188 153.621094 L 374.992188 204.929688 C 360.105469 213.480469 345.535156 222.03125 330.652344 230.582031 C 315.765625 222.03125 301.199219 213.480469 286.3125 204.929688 L 286.3125 153.621094 C 301.199219 145.070312 315.765625 136.519531 330.652344 127.96875 Z M 351.871094 142.21875 L 330.652344 129.867188 L 287.894531 154.570312 L 287.894531 203.976562 L 330.652344 228.679688 L 373.40625 203.976562 L 373.40625 154.570312 L 352.1875 142.21875 Z M 351.871094 142.21875 " fill-opacity="1" fill-rule="nonzero"/></g><path fill="#0aff9d" d="M 22.179688 310.390625 L 43.714844 322.742188 L 43.714844 347.761719 L 21.863281 360.429688 L 0.0078125 347.761719 L 0.0078125 322.742188 L 21.863281 310.074219 Z M 31.679688 317.992188 L 21.546875 312.292969 L 1.59375 324.011719 L 1.59375 347.128906 L 21.546875 358.847656 L 41.5 347.128906 L 41.5 324.011719 L 31.363281 318.308594 Z M 31.679688 317.992188 " fill-opacity="1" fill-rule="nonzero"/><path fill="#0aff9d" d="M 317.984375 198.910156 C 329.066406 205.246094 340.152344 211.894531 351.238281 218.230469 L 351.238281 256.867188 C 340.152344 263.203125 329.066406 269.851562 317.667969 276.1875 C 306.582031 269.851562 295.496094 263.203125 284.09375 256.867188 L 284.09375 218.230469 C 295.179688 211.894531 306.582031 205.246094 317.667969 198.910156 Z M 334.136719 209.046875 L 317.667969 199.542969 L 284.730469 218.546875 L 284.730469 256.550781 L 317.667969 275.554688 L 350.605469 256.550781 L 350.605469 218.546875 Z M 334.136719 209.046875 " fill-opacity="1" fill-rule="nonzero"/><path fill="#0aff9d" d="M 248.625 261.617188 C 260.660156 268.585938 273.011719 275.554688 285.046875 282.523438 L 285.046875 324.644531 C 273.011719 331.609375 260.660156 338.894531 248.625 345.863281 C 236.589844 338.894531 224.238281 331.929688 212.203125 324.644531 L 212.203125 282.523438 C 224.238281 275.554688 236.589844 268.585938 248.625 261.300781 Z M 266.359375 272.703125 L 248.308594 262.253906 L 212.203125 283.15625 L 212.203125 324.644531 L 248.308594 345.546875 L 284.414062 324.644531 L 284.414062 283.15625 Z M 266.359375 272.703125 " fill-opacity="1" fill-rule="nonzero"/><path fill="#0aff9d" d="M 286.945312 246.417969 C 293.914062 250.535156 300.5625 254.335938 307.53125 258.453125 L 307.53125 282.523438 C 300.5625 286.640625 293.597656 290.4375 286.628906 294.554688 C 279.660156 290.4375 272.695312 286.640625 265.726562 282.523438 L 265.726562 258.453125 C 272.695312 254.335938 279.660156 250.535156 286.628906 246.417969 Z M 296.765625 252.75 L 286.628906 247.050781 L 266.359375 258.769531 L 266.359375 282.203125 L 286.628906 293.921875 L 306.898438 282.203125 L 306.898438 258.769531 L 296.765625 253.066406 Z M 296.765625 252.75 " fill-opacity="1" fill-rule="nonzero"/><g clip-path="url(#da3d7d4dfb)"><path fill="#0aff9d" d="M 317.984375 257.820312 C 334.769531 267.636719 351.554688 277.136719 368.339844 286.957031 L 368.339844 345.546875 C 351.554688 355.363281 334.453125 365.183594 317.667969 375 C 300.882812 365.183594 283.777344 355.363281 266.992188 345.546875 L 266.992188 286.957031 C 283.777344 277.136719 300.882812 267.320312 317.667969 257.5 Z M 342.054688 273.652344 L 317.667969 259.402344 L 268.578125 287.589844 L 268.578125 344.28125 L 317.667969 372.464844 L 366.757812 344.28125 L 366.757812 287.589844 L 342.371094 273.335938 Z M 342.054688 273.652344 " fill-opacity="1" fill-rule="nonzero"/></g><path fill="#0aff9d" d="M 180.53125 291.390625 C 188.132812 295.824219 195.734375 300.257812 203.335938 304.691406 L 203.335938 331.292969 C 195.734375 335.726562 188.132812 340.164062 180.53125 344.597656 C 172.929688 340.164062 165.332031 335.726562 157.730469 331.292969 L 157.730469 304.691406 C 165.332031 300.257812 172.929688 295.824219 180.53125 291.390625 Z M 191.617188 298.355469 L 180.53125 292.023438 L 158.046875 305.007812 L 158.046875 330.976562 L 180.53125 343.960938 L 203.019531 330.976562 L 203.019531 305.007812 L 191.933594 298.671875 Z M 191.617188 298.355469 " fill-opacity="1" fill-rule="nonzero"/><path fill="#0aff9d" d="M 224.554688 305.640625 C 234.054688 311.34375 243.875 316.726562 253.375 322.425781 L 253.375 356.3125 C 243.558594 362.015625 233.738281 367.714844 224.238281 373.101562 C 214.421875 367.398438 204.601562 361.699219 195.101562 356.3125 L 195.101562 322.425781 C 204.917969 316.726562 214.738281 311.34375 224.238281 305.640625 L 224.554688 305.957031 Z M 238.171875 314.824219 L 224.238281 306.589844 L 196.050781 322.742188 L 196.050781 355.363281 L 224.238281 371.515625 L 252.425781 355.363281 L 252.425781 322.742188 L 238.488281 314.507812 Z M 238.171875 314.824219 " fill-opacity="1" fill-rule="nonzero"/><path fill="#0aff9d" d="M 192.566406 248.316406 L 203.335938 254.652344 L 203.335938 267.636719 L 192.25 273.96875 L 181.164062 267.636719 L 181.164062 254.652344 L 192.25 248.316406 L 192.566406 248.632812 Z M 197.316406 252.433594 L 192.25 249.585938 L 182.117188 255.285156 L 182.117188 267.003906 L 192.25 272.703125 L 202.386719 267.003906 L 202.386719 255.285156 Z M 197.316406 252.433594 " fill-opacity="1" fill-rule="nonzero"/><path fill="#0aff9d" d="M 198.585938 185.292969 C 206.503906 190.042969 214.738281 194.476562 222.65625 199.226562 L 222.65625 227.097656 C 214.738281 231.847656 206.503906 236.28125 198.585938 241.03125 C 190.667969 236.28125 182.433594 231.847656 174.515625 227.097656 L 174.515625 199.226562 C 182.433594 194.476562 190.667969 190.042969 198.585938 185.292969 Z M 210.304688 192.578125 L 198.585938 185.609375 L 174.832031 199.226562 L 174.832031 226.464844 L 198.585938 240.082031 L 222.335938 226.464844 L 222.335938 199.226562 L 210.621094 192.261719 Z M 210.304688 192.578125 " fill-opacity="1" fill-rule="nonzero"/><path fill="#0aff9d" d="M 85.519531 230.898438 C 87.421875 232.164062 89.320312 233.117188 91.222656 234.382812 L 91.222656 241.351562 L 85.203125 244.832031 L 79.1875 241.351562 L 79.1875 234.382812 C 81.085938 233.117188 83.304688 232.164062 85.203125 230.898438 Z M 88.054688 233.117188 L 85.519531 231.53125 L 80.136719 234.699219 L 80.136719 241.03125 L 85.519531 244.199219 L 90.90625 241.03125 L 90.90625 234.699219 L 88.371094 233.117188 Z M 88.054688 233.117188 " fill-opacity="1" fill-rule="nonzero"/><path fill="#0aff9d" d="M 105.15625 284.421875 C 117.507812 291.390625 129.859375 298.671875 141.894531 305.640625 L 141.894531 348.398438 L 104.839844 369.933594 C 92.488281 362.648438 80.136719 355.679688 67.785156 348.398438 L 67.785156 305.640625 C 80.136719 298.355469 92.488281 291.390625 104.839844 284.105469 Z M 122.890625 295.824219 L 104.839844 285.371094 L 68.734375 306.273438 L 68.734375 347.761719 L 104.839844 368.664062 L 140.945312 347.761719 L 140.945312 306.273438 Z M 122.890625 295.824219 " fill-opacity="1" fill-rule="nonzero"/><path fill="#0aff9d" d="M 234.6875 245.46875 C 239.441406 248.316406 244.191406 250.851562 248.941406 253.703125 L 248.941406 270.488281 L 234.371094 278.722656 L 219.804688 270.488281 L 219.804688 253.703125 C 224.554688 250.851562 229.304688 248 234.371094 245.46875 L 234.6875 245.785156 Z M 241.023438 250.535156 L 234.371094 246.734375 L 221.070312 254.335938 L 221.070312 269.851562 L 234.371094 277.453125 L 247.675781 269.851562 L 247.675781 254.335938 Z M 241.023438 250.535156 " fill-opacity="1" fill-rule="nonzero"/><path fill="#0aff9d" d="M 203.335938 273.96875 C 208.71875 277.136719 213.785156 279.988281 219.171875 283.15625 L 219.171875 301.523438 C 213.785156 304.691406 208.402344 307.859375 203.019531 310.707031 C 197.632812 307.542969 192.25 304.691406 186.867188 301.523438 L 186.867188 283.15625 C 192.25 279.988281 197.632812 277.136719 203.019531 273.96875 Z M 210.9375 279.039062 L 203.335938 274.605469 L 187.816406 283.472656 L 187.816406 301.207031 L 203.335938 310.074219 L 218.855469 301.207031 L 218.855469 283.472656 L 211.253906 279.039062 Z M 210.9375 279.039062 " fill-opacity="1" fill-rule="nonzero"/><path fill="#0aff9d" d="M 250.207031 197.328125 L 266.359375 206.511719 L 266.359375 225.199219 L 249.890625 234.699219 L 233.421875 225.199219 L 233.421875 206.511719 C 238.804688 203.34375 244.191406 200.179688 249.890625 197.011719 Z M 257.492188 202.710938 L 249.890625 198.277344 L 234.6875 207.144531 L 234.6875 224.5625 L 249.890625 233.433594 L 265.09375 224.5625 L 265.09375 207.144531 Z M 257.492188 202.710938 " fill-opacity="1" fill-rule="nonzero"/><path fill="#0aff9d" d="M 147.59375 262.886719 L 170.398438 276.1875 L 170.398438 303.109375 L 146.960938 316.726562 L 123.523438 303.109375 L 123.523438 276.1875 L 146.960938 262.570312 L 147.277344 262.886719 Z M 158.046875 270.804688 L 147.277344 264.46875 L 125.742188 276.820312 L 125.742188 301.839844 L 147.277344 314.191406 L 168.8125 301.839844 L 168.8125 276.820312 L 158.046875 270.488281 Z M 158.046875 270.804688 " fill-opacity="1" fill-rule="nonzero"/><path fill="#0aff9d" d="M 128.910156 219.179688 C 133.660156 222.03125 138.726562 224.882812 143.476562 227.730469 L 143.476562 244.832031 L 128.59375 253.382812 L 113.707031 244.832031 L 113.707031 227.730469 C 118.773438 224.882812 123.523438 222.03125 128.59375 219.179688 Z M 135.875 223.929688 L 128.910156 219.8125 L 114.65625 228.046875 L 114.65625 244.515625 L 128.910156 252.75 L 143.160156 244.515625 L 143.160156 228.046875 L 136.195312 223.929688 Z M 135.875 223.929688 " fill-opacity="1" fill-rule="nonzero"/><path fill="#0aff9d" d="M 60.816406 258.769531 C 70.320312 264.46875 80.136719 269.851562 89.636719 275.554688 L 89.636719 309.125 C 80.136719 314.824219 70.320312 320.210938 60.816406 325.910156 C 51.316406 320.210938 41.5 314.824219 31.996094 309.125 L 31.996094 275.554688 C 41.816406 270.171875 51.316406 264.46875 60.816406 258.769531 Z M 74.753906 267.636719 L 60.5 259.402344 L 31.996094 275.871094 L 31.996094 308.808594 L 60.5 325.277344 L 89.003906 308.808594 L 89.003906 275.871094 Z M 74.753906 267.636719 " fill-opacity="1" fill-rule="nonzero"/><g clip-path="url(#6c0a6ab9af)"><path fill="#0aff9d" d="M 330.96875 128.285156 C 345.535156 136.835938 360.421875 145.070312 374.992188 153.621094 L 374.992188 204.929688 C 360.105469 213.480469 345.535156 222.03125 330.652344 230.582031 C 315.765625 222.03125 301.199219 213.480469 286.3125 204.929688 L 286.3125 153.621094 C 301.199219 145.070312 315.765625 136.519531 330.652344 127.96875 Z M 351.871094 142.21875 L 330.652344 129.867188 L 287.894531 154.570312 L 287.894531 203.976562 L 330.652344 228.679688 L 373.40625 203.976562 L 373.40625 154.570312 L 352.1875 142.21875 Z M 351.871094 142.21875 " fill-opacity="1" fill-rule="nonzero"/></g><path fill="#0aff9d" d="M 22.179688 310.390625 L 43.714844 322.742188 L 43.714844 347.761719 L 21.863281 360.429688 L 0.0078125 347.761719 L 0.0078125 322.742188 L 21.863281 310.074219 Z M 31.679688 317.992188 L 21.546875 312.292969 L 1.59375 324.011719 L 1.59375 347.128906 L 21.546875 358.847656 L 41.5 347.128906 L 41.5 324.011719 L 31.363281 318.308594 Z M 31.679688 317.992188 " fill-opacity="1" fill-rule="nonzero"/></svg>