<svg xmlns="http://www.w3.org/2000/svg" xmlns:xlink="http://www.w3.org/1999/xlink" width="500" zoomAndPan="magnify" viewBox="0 0 375 374.999991" height="500" preserveAspectRatio="xMidYMid meet" version="1.0"><path fill="#0aff9d" d="M 86.859375 312.09375 C 86.523438 312.433594 86.152344 312.738281 85.757812 313.003906 C 85.359375 313.273438 84.9375 313.5 84.496094 313.683594 C 84.054688 313.867188 83.597656 314.003906 83.128906 314.097656 C 82.65625 314.195312 82.183594 314.242188 81.703125 314.242188 C 81.222656 314.242188 80.75 314.195312 80.277344 314.097656 C 79.808594 314.003906 79.351562 313.867188 78.910156 313.683594 C 78.46875 313.5 78.046875 313.273438 77.648438 313.003906 C 77.253906 312.738281 76.882812 312.433594 76.546875 312.09375 L 0.1875 235.734375 L 0.1875 215.0625 L 86.859375 301.734375 C 87.199219 302.074219 87.503906 302.445312 87.773438 302.84375 C 88.039062 303.242188 88.265625 303.664062 88.449219 304.109375 C 88.636719 304.554688 88.773438 305.011719 88.867188 305.484375 C 88.964844 305.957031 89.011719 306.433594 89.011719 306.914062 C 89.011719 307.394531 88.964844 307.871094 88.867188 308.34375 C 88.773438 308.816406 88.636719 309.273438 88.449219 309.71875 C 88.265625 310.164062 88.039062 310.585938 87.773438 310.984375 C 87.503906 311.382812 87.199219 311.753906 86.859375 312.09375 Z M 86.859375 312.09375 " fill-opacity="1" fill-rule="nonzero"/><path fill="#0aff9d" d="M 37.96875 314.53125 C 37.632812 314.871094 37.261719 315.175781 36.867188 315.441406 C 36.46875 315.710938 36.046875 315.9375 35.605469 316.121094 C 35.164062 316.304688 34.707031 316.441406 34.238281 316.539062 C 33.765625 316.632812 33.292969 316.679688 32.8125 316.679688 C 32.332031 316.679688 31.859375 316.632812 31.386719 316.539062 C 30.917969 316.441406 30.460938 316.304688 30.019531 316.121094 C 29.578125 315.9375 29.15625 315.710938 28.757812 315.441406 C 28.363281 315.175781 27.992188 314.871094 27.65625 314.53125 L 0.1875 287.0625 L 0.1875 266.390625 L 37.96875 304.171875 C 38.308594 304.511719 38.613281 304.882812 38.882812 305.28125 C 39.148438 305.679688 39.375 306.101562 39.558594 306.546875 C 39.746094 306.992188 39.882812 307.449219 39.976562 307.921875 C 40.074219 308.394531 40.121094 308.871094 40.121094 309.351562 C 40.121094 309.832031 40.074219 310.308594 39.976562 310.78125 C 39.882812 311.253906 39.746094 311.710938 39.558594 312.15625 C 39.375 312.601562 39.148438 313.023438 38.882812 313.421875 C 38.613281 313.820312 38.308594 314.191406 37.96875 314.53125 Z M 37.96875 314.53125 " fill-opacity="1" fill-rule="nonzero"/><path fill="#0aff9d" d="M 43.96875 372.890625 C 43.632812 373.230469 43.261719 373.535156 42.867188 373.800781 C 42.46875 374.070312 42.046875 374.296875 41.605469 374.480469 C 41.164062 374.664062 40.707031 374.800781 40.238281 374.898438 C 39.765625 374.992188 39.292969 375.039062 38.8125 375.039062 C 38.332031 375.039062 37.859375 374.992188 37.386719 374.898438 C 36.917969 374.800781 36.460938 374.664062 36.019531 374.480469 C 35.578125 374.296875 35.15625 374.070312 34.757812 373.800781 C 34.363281 373.535156 33.992188 373.230469 33.65625 372.890625 L 0.1875 339.421875 L 0.1875 318.75 L 43.96875 362.53125 C 44.308594 362.871094 44.613281 363.242188 44.882812 363.640625 C 45.148438 364.039062 45.375 364.460938 45.558594 364.90625 C 45.746094 365.351562 45.882812 365.808594 45.976562 366.28125 C 46.074219 366.753906 46.121094 367.230469 46.121094 367.710938 C 46.121094 368.191406 46.074219 368.667969 45.976562 369.140625 C 45.882812 369.613281 45.746094 370.070312 45.558594 370.515625 C 45.375 370.960938 45.148438 371.382812 44.882812 371.78125 C 44.613281 372.179688 44.308594 372.550781 43.96875 372.890625 Z M 43.96875 372.890625 " fill-opacity="1" fill-rule="nonzero"/><path fill="#0aff9d" d="M 96.234375 258.984375 C 95.894531 259.320312 95.523438 259.617188 95.125 259.878906 C 94.726562 260.144531 94.304688 260.363281 93.863281 260.546875 C 93.421875 260.726562 92.964844 260.863281 92.496094 260.953125 C 92.027344 261.046875 91.554688 261.09375 91.078125 261.09375 C 90.601562 261.09375 90.128906 261.046875 89.660156 260.953125 C 89.191406 260.863281 88.734375 260.726562 88.292969 260.546875 C 87.851562 260.363281 87.429688 260.144531 87.03125 259.878906 C 86.632812 259.617188 86.261719 259.320312 85.921875 258.984375 L 0.1875 173.4375 L 0.1875 152.578125 L 96.234375 248.4375 C 96.589844 248.777344 96.90625 249.152344 97.1875 249.558594 C 97.464844 249.960938 97.703125 250.390625 97.894531 250.84375 C 98.089844 251.296875 98.234375 251.765625 98.332031 252.25 C 98.433594 252.730469 98.480469 253.21875 98.480469 253.710938 C 98.480469 254.203125 98.433594 254.691406 98.332031 255.171875 C 98.234375 255.65625 98.089844 256.125 97.894531 256.578125 C 97.703125 257.03125 97.464844 257.460938 97.1875 257.863281 C 96.90625 258.269531 96.589844 258.644531 96.234375 258.984375 Z M 96.234375 258.984375 " fill-opacity="1" fill-rule="nonzero"/><path fill="#0aff9d" d="M 141.5625 252.75 C 140.878906 253.429688 140.089844 253.953125 139.195312 254.320312 C 138.300781 254.683594 137.371094 254.863281 136.40625 254.859375 C 135.476562 254.832031 134.582031 254.632812 133.722656 254.269531 C 132.867188 253.90625 132.105469 253.398438 131.4375 252.75 L 0.1875 121.875 L 0.1875 101.015625 L 141.5625 242.390625 C 141.902344 242.730469 142.207031 243.101562 142.476562 243.5 C 142.742188 243.898438 142.96875 244.320312 143.152344 244.765625 C 143.339844 245.210938 143.476562 245.667969 143.570312 246.140625 C 143.667969 246.613281 143.714844 247.089844 143.714844 247.570312 C 143.714844 248.050781 143.667969 248.527344 143.570312 249 C 143.476562 249.472656 143.339844 249.929688 143.152344 250.375 C 142.96875 250.820312 142.742188 251.242188 142.476562 251.640625 C 142.207031 252.039062 141.902344 252.410156 141.5625 252.75 Z M 141.5625 252.75 " fill-opacity="1" fill-rule="nonzero"/><path fill="#0aff9d" d="M 100.921875 163.6875 C 100.585938 164.027344 100.214844 164.332031 99.820312 164.597656 C 99.421875 164.867188 99 165.09375 98.558594 165.277344 C 98.117188 165.460938 97.660156 165.597656 97.191406 165.691406 C 96.71875 165.789062 96.246094 165.835938 95.765625 165.835938 C 95.285156 165.835938 94.8125 165.789062 94.339844 165.691406 C 93.871094 165.597656 93.414062 165.460938 92.972656 165.277344 C 92.53125 165.09375 92.109375 164.867188 91.710938 164.597656 C 91.316406 164.332031 90.945312 164.027344 90.609375 163.6875 L 0.1875 73.265625 L 0.1875 52.59375 L 100.921875 153.328125 C 101.261719 153.667969 101.566406 154.039062 101.835938 154.4375 C 102.101562 154.835938 102.328125 155.257812 102.511719 155.703125 C 102.699219 156.148438 102.835938 156.605469 102.929688 157.078125 C 103.027344 157.550781 103.074219 158.027344 103.074219 158.507812 C 103.074219 158.988281 103.027344 159.464844 102.929688 159.9375 C 102.835938 160.410156 102.699219 160.867188 102.511719 161.3125 C 102.328125 161.757812 102.101562 162.179688 101.835938 162.578125 C 101.566406 162.976562 101.261719 163.347656 100.921875 163.6875 Z M 100.921875 163.6875 " fill-opacity="1" fill-rule="nonzero"/><path fill="#0aff9d" d="M 175.921875 188.671875 C 175.585938 189.011719 175.214844 189.316406 174.820312 189.582031 C 174.421875 189.851562 174 190.078125 173.558594 190.261719 C 173.117188 190.445312 172.660156 190.582031 172.191406 190.675781 C 171.71875 190.773438 171.246094 190.820312 170.765625 190.820312 C 170.285156 190.820312 169.8125 190.773438 169.339844 190.675781 C 168.871094 190.582031 168.414062 190.445312 167.972656 190.261719 C 167.53125 190.078125 167.109375 189.851562 166.710938 189.582031 C 166.316406 189.316406 165.945312 189.011719 165.609375 188.671875 L 0.1875 23.4375 L 0.1875 2.578125 L 175.921875 178.125 C 176.277344 178.464844 176.59375 178.839844 176.875 179.246094 C 177.152344 179.648438 177.390625 180.078125 177.582031 180.53125 C 177.777344 180.984375 177.921875 181.453125 178.019531 181.9375 C 178.121094 182.417969 178.167969 182.90625 178.167969 183.398438 C 178.167969 183.890625 178.121094 184.378906 178.019531 184.859375 C 177.921875 185.34375 177.777344 185.8125 177.582031 186.265625 C 177.390625 186.71875 177.152344 187.148438 176.875 187.550781 C 176.59375 187.957031 176.277344 188.332031 175.921875 188.671875 Z M 175.921875 188.671875 " fill-opacity="1" fill-rule="nonzero"/><path fill="#0aff9d" d="M 93.140625 54.28125 C 92.445312 54.964844 91.648438 55.492188 90.75 55.867188 C 89.847656 56.238281 88.910156 56.429688 87.9375 56.4375 C 86.96875 56.433594 86.039062 56.246094 85.144531 55.871094 C 84.253906 55.496094 83.464844 54.96875 82.78125 54.28125 L 28.3125 0 L 48.984375 0 L 92.953125 43.96875 C 93.300781 44.300781 93.609375 44.664062 93.882812 45.054688 C 94.160156 45.449219 94.394531 45.863281 94.585938 46.304688 C 94.777344 46.742188 94.925781 47.195312 95.027344 47.664062 C 95.128906 48.132812 95.183594 48.605469 95.195312 49.085938 C 95.203125 49.566406 95.164062 50.039062 95.078125 50.511719 C 94.992188 50.984375 94.863281 51.441406 94.6875 51.890625 C 94.511719 52.335938 94.292969 52.757812 94.03125 53.160156 C 93.773438 53.5625 93.476562 53.9375 93.140625 54.28125 Z M 93.140625 54.28125 " fill-opacity="1" fill-rule="nonzero"/><path fill="#0aff9d" d="M 178.3125 90.234375 C 177.976562 90.574219 177.605469 90.878906 177.210938 91.144531 C 176.8125 91.414062 176.390625 91.640625 175.949219 91.824219 C 175.507812 92.007812 175.050781 92.144531 174.582031 92.242188 C 174.109375 92.335938 173.636719 92.382812 173.15625 92.382812 C 172.675781 92.382812 172.203125 92.335938 171.730469 92.242188 C 171.261719 92.144531 170.804688 92.007812 170.363281 91.824219 C 169.921875 91.640625 169.5 91.414062 169.101562 91.144531 C 168.707031 90.878906 168.335938 90.574219 168 90.234375 L 77.859375 0 L 98.625 0 L 178.3125 79.6875 C 178.667969 80.027344 178.984375 80.402344 179.265625 80.808594 C 179.542969 81.210938 179.78125 81.640625 179.972656 82.09375 C 180.167969 82.546875 180.3125 83.015625 180.410156 83.5 C 180.511719 83.980469 180.558594 84.46875 180.558594 84.960938 C 180.558594 85.453125 180.511719 85.941406 180.410156 86.421875 C 180.3125 86.90625 180.167969 87.375 179.972656 87.828125 C 179.78125 88.28125 179.542969 88.710938 179.265625 89.113281 C 178.984375 89.519531 178.667969 89.894531 178.3125 90.234375 Z M 178.3125 90.234375 " fill-opacity="1" fill-rule="nonzero"/><path fill="#0aff9d" d="M 250.921875 108.984375 C 250.585938 109.324219 250.214844 109.628906 249.820312 109.894531 C 249.421875 110.164062 249 110.390625 248.558594 110.574219 C 248.117188 110.757812 247.660156 110.894531 247.191406 110.992188 C 246.71875 111.085938 246.246094 111.132812 245.765625 111.132812 C 245.285156 111.132812 244.8125 111.085938 244.339844 110.992188 C 243.871094 110.894531 243.414062 110.757812 242.972656 110.574219 C 242.53125 110.390625 242.109375 110.164062 241.710938 109.894531 C 241.316406 109.628906 240.945312 109.324219 240.609375 108.984375 L 131.4375 0 L 152.109375 0 L 250.546875 98.4375 C 250.914062 98.765625 251.246094 99.128906 251.539062 99.523438 C 251.835938 99.917969 252.085938 100.339844 252.296875 100.785156 C 252.503906 101.230469 252.667969 101.695312 252.78125 102.171875 C 252.898438 102.652344 252.964844 103.136719 252.984375 103.632812 C 253 104.125 252.96875 104.613281 252.886719 105.097656 C 252.804688 105.585938 252.675781 106.058594 252.5 106.519531 C 252.320312 106.976562 252.101562 107.414062 251.835938 107.832031 C 251.570312 108.246094 251.265625 108.628906 250.921875 108.984375 Z M 250.921875 108.984375 " fill-opacity="1" fill-rule="nonzero"/><path fill="#0aff9d" d="M 255.609375 48.046875 C 255.273438 48.386719 254.902344 48.691406 254.507812 48.957031 C 254.109375 49.226562 253.6875 49.453125 253.246094 49.636719 C 252.804688 49.820312 252.347656 49.957031 251.878906 50.054688 C 251.40625 50.148438 250.933594 50.195312 250.453125 50.195312 C 249.972656 50.195312 249.5 50.148438 249.027344 50.054688 C 248.558594 49.957031 248.101562 49.820312 247.660156 49.636719 C 247.21875 49.453125 246.796875 49.226562 246.398438 48.957031 C 246.003906 48.691406 245.632812 48.386719 245.296875 48.046875 L 197.0625 0 L 217.734375 0 L 255.234375 37.5 C 255.601562 37.828125 255.933594 38.191406 256.226562 38.585938 C 256.523438 38.980469 256.773438 39.402344 256.984375 39.847656 C 257.191406 40.292969 257.355469 40.757812 257.46875 41.234375 C 257.585938 41.714844 257.652344 42.199219 257.671875 42.695312 C 257.6875 43.1875 257.65625 43.675781 257.574219 44.160156 C 257.492188 44.648438 257.363281 45.121094 257.1875 45.582031 C 257.007812 46.039062 256.789062 46.476562 256.523438 46.894531 C 256.257812 47.308594 255.953125 47.691406 255.609375 48.046875 Z M 255.609375 48.046875 " fill-opacity="1" fill-rule="nonzero"/></svg>