<svg xmlns="http://www.w3.org/2000/svg" xmlns:xlink="http://www.w3.org/1999/xlink" width="50" zoomAndPan="magnify" viewBox="0 0 37.5 37.499999" height="50" preserveAspectRatio="xMidYMid meet" version="1.0"><defs><clipPath id="812dc04c04"><path d="M 0.371094 0 L 36.636719 0 L 36.636719 37.007812 L 0.371094 37.007812 Z M 0.371094 0 " clip-rule="nonzero"/></clipPath><clipPath id="e5e7192e76"><path d="M 16 34 L 21 34 L 21 37.007812 L 16 37.007812 Z M 16 34 " clip-rule="nonzero"/></clipPath></defs><g clip-path="url(#812dc04c04)"><path fill="#0aff9d" d="M 34.261719 12.863281 L 33.929688 12.863281 C 32.585938 5.554688 26.171875 0 18.480469 0 C 10.789062 0 4.378906 5.554688 3.03125 12.863281 L 2.699219 12.863281 C 1.441406 12.863281 0.414062 13.886719 0.414062 15.148438 L 0.414062 18.945312 C 0.414062 20.203125 1.441406 21.226562 2.699219 21.226562 L 3.617188 21.226562 L 3.585938 34.621094 C 2.980469 36.25 2.542969 37.988281 2.28125 39.722656 C 2.257812 39.785156 2.25 39.847656 2.253906 39.914062 C 2.144531 40.671875 2.074219 41.425781 2.035156 42.171875 C 2.007812 42.261719 1.996094 42.351562 2.019531 42.4375 C 1.917969 44.953125 2.222656 47.316406 2.996094 49.132812 C 3.222656 49.671875 3.679688 50.066406 4.246094 50.210938 C 4.402344 50.25 4.558594 50.269531 4.710938 50.269531 C 5.121094 50.269531 5.519531 50.132812 5.855469 49.871094 L 5.90625 49.828125 C 6.21875 50.019531 6.59375 50.121094 7.03125 50.121094 C 7.101562 50.121094 7.179688 50.109375 7.257812 50.105469 C 7.519531 54.472656 8.128906 57.304688 8.394531 58.375 C 7.859375 58.566406 7.375 58.820312 6.949219 59.144531 C 6.324219 59.621094 6.082031 60.414062 6.335938 61.167969 C 6.59375 61.929688 7.277344 62.425781 8.082031 62.425781 L 15.75 62.425781 C 16.34375 62.425781 16.90625 62.167969 17.292969 61.71875 C 17.683594 61.265625 17.859375 60.667969 17.769531 60.074219 C 17.25 56.550781 17.296875 52.996094 17.910156 49.515625 C 17.957031 49.246094 18.199219 49.046875 18.480469 49.046875 C 18.765625 49.046875 19.003906 49.246094 19.050781 49.515625 C 19.664062 52.996094 19.710938 56.550781 19.191406 60.074219 C 19.105469 60.667969 19.277344 61.265625 19.667969 61.71875 C 20.058594 62.167969 20.621094 62.425781 21.214844 62.425781 L 28.882812 62.425781 C 29.683594 62.425781 30.367188 61.929688 30.625 61.167969 C 30.878906 60.414062 30.640625 59.621094 30.011719 59.144531 C 29.589844 58.824219 29.105469 58.566406 28.566406 58.375 C 28.832031 57.304688 29.441406 54.472656 29.707031 50.105469 C 29.78125 50.109375 29.859375 50.121094 29.933594 50.121094 C 30.367188 50.121094 30.742188 50.019531 31.054688 49.828125 L 31.109375 49.871094 C 31.441406 50.132812 31.839844 50.269531 32.25 50.269531 C 32.40625 50.269531 32.5625 50.25 32.714844 50.210938 C 33.28125 50.066406 33.738281 49.671875 33.96875 49.132812 C 34.738281 47.316406 35.042969 44.953125 34.941406 42.4375 C 34.964844 42.351562 34.957031 42.261719 34.929688 42.171875 C 34.890625 41.425781 34.816406 40.671875 34.710938 39.914062 C 34.714844 39.847656 34.703125 39.785156 34.679688 39.722656 C 34.421875 37.984375 33.980469 36.246094 33.378906 34.621094 L 33.347656 21.226562 L 34.261719 21.226562 C 35.523438 21.226562 36.546875 20.203125 36.546875 18.945312 L 36.546875 15.144531 C 36.546875 13.886719 35.523438 12.863281 34.261719 12.863281 Z M 32.425781 34.882812 C 32.425781 34.882812 32.425781 34.886719 32.425781 34.886719 C 33 36.398438 33.421875 38.015625 33.679688 39.636719 C 32.34375 40.429688 30.972656 40.679688 29.515625 40.402344 C 29.1875 38.019531 28.625 36 28.015625 34.355469 C 29.394531 34.304688 30.59375 33.5 31.253906 32.320312 C 31.695312 33.121094 32.085938 33.984375 32.425781 34.882812 Z M 33.945312 42.03125 C 32.746094 42.667969 31.339844 42.90625 29.75 42.738281 C 29.722656 42.289062 29.6875 41.851562 29.644531 41.425781 C 29.976562 41.476562 30.308594 41.507812 30.636719 41.507812 C 31.734375 41.507812 32.800781 41.230469 33.828125 40.691406 C 33.878906 41.140625 33.917969 41.585938 33.945312 42.03125 Z M 3.132812 40.691406 C 4.164062 41.230469 5.230469 41.507812 6.324219 41.507812 C 6.652344 41.507812 6.984375 41.476562 7.320312 41.425781 C 7.273438 41.851562 7.238281 42.289062 7.210938 42.738281 C 5.621094 42.90625 4.214844 42.667969 3.015625 42.03125 C 3.042969 41.585938 3.082031 41.140625 3.132812 40.691406 Z M 4.535156 34.886719 C 4.535156 34.886719 4.535156 34.882812 4.535156 34.882812 C 4.875 33.984375 5.265625 33.121094 5.707031 32.320312 C 6.371094 33.5 7.566406 34.304688 8.945312 34.355469 C 8.335938 36 7.773438 38.019531 7.445312 40.402344 C 5.988281 40.679688 4.621094 40.429688 3.28125 39.636719 C 3.542969 38.015625 3.964844 36.398438 4.535156 34.886719 Z M 28.664062 41.597656 L 25.691406 41.597656 C 24.933594 41.597656 24.3125 42.214844 24.3125 42.972656 L 24.3125 43.539062 L 22.410156 43.539062 C 24.484375 40.421875 25.484375 36.375 25.457031 31.238281 C 26.507812 33.058594 28.140625 36.59375 28.664062 41.597656 Z M 15.765625 43.539062 C 13.546875 40.53125 12.46875 36.503906 12.492188 31.273438 C 13.414062 32.363281 15.183594 33.597656 18.480469 33.597656 C 21.777344 33.597656 23.546875 32.363281 24.46875 31.273438 C 24.492188 36.503906 23.417969 40.53125 21.199219 43.539062 Z M 10.886719 41.042969 C 9.832031 41.042969 8.976562 41.898438 8.976562 42.949219 L 8.976562 43.539062 L 8.164062 43.539062 C 8.40625 37.503906 10.324219 33.289062 11.503906 31.234375 C 11.476562 36.371094 12.476562 40.421875 14.550781 43.539062 L 12.792969 43.539062 L 12.792969 42.949219 C 12.792969 41.898438 11.9375 41.042969 10.886719 41.042969 Z M 19.164062 31.40625 C 20.796875 31.335938 22.367188 31.015625 23.832031 30.484375 C 23.105469 31.421875 21.574219 32.605469 18.480469 32.605469 C 15.386719 32.605469 13.855469 31.417969 13.128906 30.484375 C 14.59375 31.015625 16.164062 31.335938 17.796875 31.40625 C 18.023438 31.417969 18.25 31.421875 18.480469 31.421875 C 18.710938 31.421875 18.9375 31.417969 19.164062 31.40625 Z M 18.480469 30.433594 C 11.679688 30.433594 6.148438 24.898438 6.148438 18.101562 C 6.148438 11.300781 11.679688 5.769531 18.480469 5.769531 C 25.28125 5.769531 30.8125 11.300781 30.8125 18.101562 C 30.8125 24.898438 25.28125 30.433594 18.480469 30.433594 Z M 7.917969 27.332031 C 8.929688 28.253906 10.070312 29.042969 11.300781 29.679688 C 10.863281 30.3125 10.101562 31.546875 9.34375 33.347656 C 9.257812 33.355469 9.175781 33.371094 9.089844 33.371094 C 7.46875 33.371094 6.148438 31.957031 6.148438 30.214844 C 6.148438 28.949219 6.851562 27.828125 7.917969 27.332031 Z M 8.132812 44.53125 L 8.980469 44.53125 L 8.980469 45.609375 L 8.121094 45.609375 C 8.125 45.257812 8.128906 44.894531 8.132812 44.53125 Z M 9.96875 42.949219 C 9.96875 42.445312 10.378906 42.03125 10.886719 42.03125 C 11.390625 42.03125 11.800781 42.445312 11.800781 42.949219 L 11.800781 47.222656 C 11.800781 47.726562 11.390625 48.136719 10.886719 48.136719 C 10.378906 48.136719 9.96875 47.726562 9.96875 47.222656 Z M 12.792969 44.53125 L 24.3125 44.53125 L 24.3125 45.609375 L 12.792969 45.609375 Z M 25.304688 42.972656 C 25.304688 42.761719 25.480469 42.585938 25.691406 42.585938 L 26.523438 42.585938 L 26.523438 47.21875 L 25.691406 47.21875 C 25.476562 47.21875 25.304688 47.042969 25.304688 46.832031 Z M 27.515625 42.585938 L 28.746094 42.585938 C 28.78125 43.0625 28.804688 43.546875 28.816406 44.046875 C 28.84375 45.160156 28.84375 46.21875 28.824219 47.21875 L 27.515625 47.21875 Z M 27.871094 33.371094 C 27.789062 33.371094 27.703125 33.355469 27.617188 33.347656 C 26.863281 31.546875 26.097656 30.308594 25.664062 29.679688 C 26.890625 29.042969 28.03125 28.253906 29.046875 27.332031 C 30.109375 27.828125 30.8125 28.949219 30.8125 30.214844 C 30.8125 31.957031 29.492188 33.371094 27.871094 33.371094 Z M 31.804688 18.101562 C 31.804688 10.753906 25.828125 4.777344 18.480469 4.777344 C 11.136719 4.777344 5.160156 10.753906 5.160156 18.101562 C 5.160156 20.667969 5.890625 23.0625 7.152344 25.097656 C 6.40625 24.203125 5.769531 23.21875 5.253906 22.164062 C 4.804688 20.773438 4.574219 19.320312 4.574219 17.84375 C 4.574219 10.082031 10.890625 3.765625 18.652344 3.765625 C 26.414062 3.765625 32.730469 10.082031 32.730469 17.84375 C 32.730469 18.5625 32.671875 19.285156 32.566406 19.992188 C 31.988281 21.882812 31.042969 23.613281 29.808594 25.097656 C 31.074219 23.0625 31.804688 20.667969 31.804688 18.101562 Z M 18.480469 0.992188 C 25.734375 0.992188 31.773438 6.265625 32.976562 13.175781 C 31.007812 7.144531 25.332031 2.773438 18.652344 2.773438 C 11.136719 2.773438 4.890625 8.304688 3.765625 15.507812 C 3.875 7.484375 10.433594 0.992188 18.480469 0.992188 Z M 1.40625 18.945312 L 1.40625 15.148438 C 1.40625 14.433594 1.984375 13.855469 2.699219 13.855469 L 2.882812 13.855469 C 2.808594 14.464844 2.769531 15.082031 2.769531 15.710938 C 2.769531 17.285156 3.003906 18.804688 3.4375 20.238281 L 2.699219 20.238281 C 1.984375 20.234375 1.40625 19.65625 1.40625 18.945312 Z M 4.601562 23.066406 C 5.292969 24.363281 6.160156 25.550781 7.171875 26.601562 C 5.945312 27.324219 5.160156 28.691406 5.160156 30.214844 C 5.160156 30.53125 5.195312 30.835938 5.257812 31.132812 C 5.019531 31.519531 4.792969 31.925781 4.582031 32.34375 Z M 6.316406 48.914062 C 5.992188 48.632812 5.847656 48.003906 5.902344 47.097656 C 5.917969 46.824219 5.707031 46.589844 5.4375 46.570312 C 5.164062 46.550781 4.929688 46.761719 4.910156 47.035156 C 4.859375 47.914062 4.964844 48.59375 5.230469 49.097656 C 5.019531 49.261719 4.75 49.316406 4.492188 49.25 C 4.226562 49.183594 4.011719 49 3.90625 48.746094 C 3.25 47.203125 2.957031 45.234375 2.976562 43.117188 C 3.964844 43.5625 5.050781 43.785156 6.234375 43.785156 C 6.539062 43.785156 6.847656 43.765625 7.160156 43.738281 C 7.160156 43.832031 7.152344 43.925781 7.152344 44.023438 C 7.132812 44.738281 7.128906 45.425781 7.132812 46.09375 C 7.132812 46.097656 7.128906 46.101562 7.128906 46.105469 C 7.128906 46.109375 7.132812 46.113281 7.132812 46.117188 C 7.136719 47.179688 7.160156 48.183594 7.203125 49.121094 C 6.8125 49.152344 6.515625 49.082031 6.316406 48.914062 Z M 7.273438 60.851562 C 7.230469 60.71875 7.117188 60.261719 7.550781 59.933594 C 7.996094 59.59375 8.511719 59.347656 9.125 59.1875 C 9.253906 59.152344 9.363281 59.066406 9.429688 58.949219 C 9.496094 58.832031 9.511719 58.695312 9.472656 58.566406 C 9.464844 58.542969 9.164062 57.5 8.847656 55.550781 C 10.195312 55.703125 11.492188 55.785156 12.746094 55.785156 C 14.011719 55.785156 15.234375 55.703125 16.429688 55.546875 C 16.4375 56.359375 16.472656 57.171875 16.539062 57.984375 C 14.789062 58.195312 13.671875 59.464844 13.511719 61.433594 L 8.078125 61.433594 C 7.632812 61.433594 7.371094 61.132812 7.273438 60.851562 Z M 16.542969 61.070312 C 16.339844 61.304688 16.058594 61.433594 15.746094 61.433594 L 14.507812 61.433594 C 14.601562 60.421875 15.050781 59.164062 16.628906 58.96875 C 16.675781 59.386719 16.726562 59.800781 16.789062 60.21875 C 16.835938 60.527344 16.746094 60.835938 16.542969 61.070312 Z M 18.480469 48.058594 C 17.714844 48.058594 17.066406 48.597656 16.933594 49.34375 C 16.632812 51.066406 16.464844 52.804688 16.433594 54.546875 C 14.011719 54.871094 11.46875 54.867188 8.691406 54.535156 C 8.414062 52.558594 8.160156 49.886719 8.125 46.601562 L 8.980469 46.601562 L 8.980469 47.222656 C 8.980469 48.273438 9.835938 49.128906 10.886719 49.128906 C 11.9375 49.128906 12.792969 48.273438 12.792969 47.222656 L 12.792969 46.601562 L 24.316406 46.601562 L 24.316406 46.832031 C 24.316406 47.589844 24.933594 48.210938 25.691406 48.210938 L 28.800781 48.210938 C 28.714844 50.765625 28.5 52.890625 28.269531 54.535156 C 25.492188 54.867188 22.953125 54.871094 20.53125 54.546875 C 20.496094 52.804688 20.332031 51.066406 20.027344 49.34375 C 19.894531 48.597656 19.246094 48.058594 18.480469 48.058594 Z M 20.417969 61.070312 C 20.21875 60.835938 20.128906 60.527344 20.171875 60.21875 C 20.234375 59.800781 20.285156 59.386719 20.332031 58.96875 C 21.914062 59.164062 22.359375 60.421875 22.453125 61.433594 L 21.214844 61.433594 C 20.902344 61.433594 20.621094 61.304688 20.417969 61.070312 Z M 29.410156 59.933594 C 29.84375 60.261719 29.730469 60.71875 29.6875 60.851562 C 29.59375 61.132812 29.328125 61.433594 28.882812 61.433594 L 23.449219 61.433594 C 23.289062 59.464844 22.171875 58.195312 20.421875 57.984375 C 20.488281 57.171875 20.523438 56.359375 20.53125 55.546875 C 21.730469 55.703125 22.953125 55.785156 24.214844 55.785156 C 25.46875 55.785156 26.765625 55.703125 28.113281 55.550781 C 27.796875 57.496094 27.496094 58.542969 27.488281 58.566406 C 27.453125 58.695312 27.46875 58.832031 27.53125 58.949219 C 27.597656 59.066406 27.707031 59.152344 27.835938 59.1875 C 28.449219 59.347656 28.964844 59.59375 29.410156 59.933594 Z M 33.054688 48.746094 C 32.945312 49 32.734375 49.183594 32.46875 49.25 C 32.210938 49.316406 31.941406 49.261719 31.730469 49.097656 C 31.996094 48.59375 32.101562 47.914062 32.050781 47.035156 C 32.03125 46.765625 31.800781 46.550781 31.523438 46.574219 C 31.25 46.589844 31.042969 46.824219 31.058594 47.097656 C 31.113281 48.003906 30.96875 48.632812 30.644531 48.914062 C 30.445312 49.085938 30.148438 49.152344 29.757812 49.121094 C 29.828125 47.589844 29.851562 45.890625 29.808594 44.023438 C 29.804688 43.925781 29.800781 43.835938 29.796875 43.738281 C 30.113281 43.769531 30.421875 43.789062 30.722656 43.789062 C 31.910156 43.789062 32.996094 43.5625 33.980469 43.121094 C 34.003906 45.234375 33.710938 47.203125 33.054688 48.746094 Z M 31.703125 31.132812 C 31.765625 30.835938 31.804688 30.53125 31.804688 30.214844 C 31.804688 28.691406 31.015625 27.324219 29.789062 26.601562 C 30.800781 25.550781 31.667969 24.363281 32.359375 23.066406 L 32.382812 32.34375 C 32.167969 31.925781 31.941406 31.519531 31.703125 31.132812 Z M 35.554688 18.945312 C 35.554688 19.65625 34.976562 20.234375 34.261719 20.234375 L 33.523438 20.234375 C 33.527344 20.230469 33.53125 20.222656 33.53125 20.214844 C 33.53125 20.210938 33.539062 20.203125 33.539062 20.195312 C 33.539062 20.191406 33.539062 20.191406 33.539062 20.1875 C 33.960938 18.765625 34.191406 17.265625 34.191406 15.710938 C 34.191406 15.082031 34.152344 14.464844 34.078125 13.855469 L 34.261719 13.855469 C 34.976562 13.855469 35.554688 14.433594 35.554688 15.144531 Z M 35.554688 18.945312 " fill-opacity="1" fill-rule="nonzero"/></g><g clip-path="url(#e5e7192e76)"><path fill="#0aff9d" d="M 18.480469 34.363281 C 17.15625 34.363281 16.078125 35.441406 16.078125 36.769531 C 16.078125 38.09375 17.15625 39.171875 18.480469 39.171875 C 19.804688 39.171875 20.882812 38.09375 20.882812 36.769531 C 20.882812 35.441406 19.804688 34.363281 18.480469 34.363281 Z M 18.480469 38.179688 C 17.703125 38.179688 17.070312 37.546875 17.070312 36.769531 C 17.070312 35.988281 17.703125 35.355469 18.480469 35.355469 C 19.257812 35.355469 19.894531 35.988281 19.894531 36.769531 C 19.894531 37.546875 19.257812 38.179688 18.480469 38.179688 Z M 18.480469 38.179688 " fill-opacity="1" fill-rule="nonzero"/></g><path fill="#0aff9d" d="M 14.449219 7.511719 C 13.507812 7.511719 12.746094 8.277344 12.746094 9.214844 C 12.746094 10.15625 13.507812 10.921875 14.449219 10.921875 C 15.390625 10.921875 16.152344 10.15625 16.152344 9.214844 C 16.152344 8.277344 15.390625 7.511719 14.449219 7.511719 Z M 14.449219 9.929688 C 14.054688 9.929688 13.734375 9.609375 13.734375 9.214844 C 13.734375 8.824219 14.054688 8.503906 14.449219 8.503906 C 14.84375 8.503906 15.164062 8.824219 15.164062 9.214844 C 15.164062 9.609375 14.84375 9.929688 14.449219 9.929688 Z M 14.449219 9.929688 " fill-opacity="1" fill-rule="nonzero"/><path fill="#0aff9d" d="M 11 10.492188 C 10.855469 10.542969 10.722656 10.613281 10.601562 10.703125 C 8.988281 11.902344 7.980469 13.621094 7.605469 15.808594 C 7.539062 16.203125 7.628906 16.597656 7.855469 16.921875 C 8.085938 17.246094 8.429688 17.460938 8.820312 17.527344 C 8.902344 17.539062 8.984375 17.546875 9.070312 17.546875 C 9.234375 17.546875 9.398438 17.519531 9.554688 17.464844 C 10.066406 17.289062 10.445312 16.847656 10.535156 16.3125 C 10.777344 14.882812 11.378906 13.828125 12.375 13.089844 C 13.03125 12.601562 13.167969 11.667969 12.683594 11.011719 C 12.292969 10.488281 11.617188 10.28125 11 10.492188 Z M 11.785156 12.292969 C 10.574219 13.191406 9.847656 14.453125 9.558594 16.144531 C 9.527344 16.324219 9.402344 16.46875 9.230469 16.527344 C 9.230469 16.527344 9.230469 16.527344 9.230469 16.53125 C 9.152344 16.554688 9.070312 16.5625 8.988281 16.550781 C 8.855469 16.527344 8.742188 16.457031 8.667969 16.347656 C 8.589844 16.238281 8.558594 16.109375 8.582031 15.976562 C 8.910156 14.046875 9.789062 12.542969 11.195312 11.5 C 11.234375 11.46875 11.277344 11.445312 11.324219 11.429688 C 11.378906 11.410156 11.433594 11.402344 11.488281 11.402344 C 11.644531 11.402344 11.789062 11.472656 11.886719 11.601562 C 12.050781 11.820312 12.003906 12.132812 11.785156 12.292969 Z M 11.785156 12.292969 " fill-opacity="1" fill-rule="nonzero"/></svg>